<svg xmlns="http://www.w3.org/2000/svg" viewBox="0 0 512 512" role="img" aria-label="Contas">
  <rect width="512" height="512" rx="112" fill="#3C5558"/>
  <g fill="#FFF8E7" transform="translate(63 63) scale(1.2867)">
    <path d="M263.494 121.916a506.886 506.886 0 0 1-7.343 10.278c-23.257 31.688-52.009 60.867-57.503 66.409-15.916 15.914-45.615 43.955-76.782 64.845 9.14 2.32 18.758 3.552 28.656 3.552 64.325 0 116.476-52.152 116.476-116.523 0-9.853-1.232-19.42-3.504-28.561Zm-10.8-27.331c13.121-22.359 19.515-43.2 8.195-54.472-7.863-7.863-19.941-8.148-37.135-.807.71-.093 1.373-.188 2.085-.188h1.422c8.951 0 14.067 5.826 15.441 12.598.252 1.32.32 2.678.408 4.016.392 6.062-2.835 12.158-5.476 17.442-21.317-24.015-52.438-39.172-87.11-39.172C86.151 34.002 34 86.152 34 150.478a116.37 116.37 0 0 0 3.552 28.61c.142.569.285 1.09.425 1.659 5.969 22.31 18.426 42.015 35.195 56.887-6.916 3.457-9.473 5.306-16.059 5.306h-.19c-.567 0-1.042-.095-1.61-.141a14.882 14.882 0 0 1-3.741-.759c-6.964-2.274-10.899-6.606-10.943-21.174-8.62 18.71-8.81 31.737-.52 40.025 4.072 4.027 9.378 5.826 15.537 5.826 10.99 0 24.631-5.636 38.936-14.019 37.941-22.169 80.192-63.756 87.298-70.861 7.105-7.106 48.646-49.311 70.814-87.25v-.002Z"/>
  </g>
</svg>
